<mxfile host="app.diagrams.net" modified="2024-03-21T10:55:25.903Z" agent="Mozilla/5.0 (Windows NT 10.0; Win64; x64) AppleWebKit/537.36 (KHTML, like Gecko) Chrome/120.0.0.0 YaBrowser/24.1.0.0 Safari/537.36" etag="17k0ff41KsMx66CHXLO7" version="24.0.7" type="device">
  <diagram id="C5RBs43oDa-KdzZeNtuy" name="Page-1">
    <mxGraphModel dx="1050" dy="575" grid="1" gridSize="10" guides="1" tooltips="1" connect="1" arrows="1" fold="1" page="1" pageScale="1" pageWidth="827" pageHeight="1169" math="0" shadow="0">
      <root>
        <mxCell id="WIyWlLk6GJQsqaUBKTNV-0" />
        <mxCell id="WIyWlLk6GJQsqaUBKTNV-1" parent="WIyWlLk6GJQsqaUBKTNV-0" />
        <mxCell id="h38hMKtq3HGebdx2gwiE-13" value="" style="edgeStyle=orthogonalEdgeStyle;rounded=0;orthogonalLoop=1;jettySize=auto;html=1;" edge="1" parent="WIyWlLk6GJQsqaUBKTNV-1" source="h38hMKtq3HGebdx2gwiE-0" target="h38hMKtq3HGebdx2gwiE-4">
          <mxGeometry relative="1" as="geometry">
            <Array as="points">
              <mxPoint x="398" y="140" />
              <mxPoint x="398" y="140" />
            </Array>
          </mxGeometry>
        </mxCell>
        <mxCell id="h38hMKtq3HGebdx2gwiE-0" value="начало" style="ellipse;whiteSpace=wrap;html=1;" vertex="1" parent="WIyWlLk6GJQsqaUBKTNV-1">
          <mxGeometry x="347.5" y="10" width="102.5" height="60" as="geometry" />
        </mxCell>
        <mxCell id="h38hMKtq3HGebdx2gwiE-1" value="string array" style="shape=parallelogram;perimeter=parallelogramPerimeter;whiteSpace=wrap;html=1;fixedSize=1;" vertex="1" parent="WIyWlLk6GJQsqaUBKTNV-1">
          <mxGeometry x="338.75" y="90" width="120" height="40" as="geometry" />
        </mxCell>
        <mxCell id="h38hMKtq3HGebdx2gwiE-15" value="" style="edgeStyle=orthogonalEdgeStyle;rounded=0;orthogonalLoop=1;jettySize=auto;html=1;" edge="1" parent="WIyWlLk6GJQsqaUBKTNV-1" source="h38hMKtq3HGebdx2gwiE-4" target="h38hMKtq3HGebdx2gwiE-5">
          <mxGeometry relative="1" as="geometry">
            <Array as="points">
              <mxPoint x="399" y="220" />
              <mxPoint x="399" y="220" />
            </Array>
          </mxGeometry>
        </mxCell>
        <mxCell id="h38hMKtq3HGebdx2gwiE-4" value="i = 0&lt;div&gt;counter = 0&lt;/div&gt;" style="rounded=0;whiteSpace=wrap;html=1;" vertex="1" parent="WIyWlLk6GJQsqaUBKTNV-1">
          <mxGeometry x="337.5" y="160" width="120" height="50" as="geometry" />
        </mxCell>
        <mxCell id="h38hMKtq3HGebdx2gwiE-17" value="" style="edgeStyle=orthogonalEdgeStyle;rounded=0;orthogonalLoop=1;jettySize=auto;html=1;" edge="1" parent="WIyWlLk6GJQsqaUBKTNV-1" source="h38hMKtq3HGebdx2gwiE-5" target="h38hMKtq3HGebdx2gwiE-6">
          <mxGeometry relative="1" as="geometry" />
        </mxCell>
        <mxCell id="h38hMKtq3HGebdx2gwiE-5" value="i &amp;lt; array.length" style="rhombus;whiteSpace=wrap;html=1;" vertex="1" parent="WIyWlLk6GJQsqaUBKTNV-1">
          <mxGeometry x="341.41" y="240" width="117.19" height="80" as="geometry" />
        </mxCell>
        <mxCell id="h38hMKtq3HGebdx2gwiE-18" value="" style="edgeStyle=orthogonalEdgeStyle;rounded=0;orthogonalLoop=1;jettySize=auto;html=1;" edge="1" parent="WIyWlLk6GJQsqaUBKTNV-1" source="h38hMKtq3HGebdx2gwiE-6" target="h38hMKtq3HGebdx2gwiE-8">
          <mxGeometry relative="1" as="geometry" />
        </mxCell>
        <mxCell id="h38hMKtq3HGebdx2gwiE-6" value="array[i].length &amp;lt;= 3" style="rhombus;whiteSpace=wrap;html=1;" vertex="1" parent="WIyWlLk6GJQsqaUBKTNV-1">
          <mxGeometry x="335" y="340" width="130" height="70" as="geometry" />
        </mxCell>
        <mxCell id="h38hMKtq3HGebdx2gwiE-7" value="counter = counter + 1" style="rounded=0;whiteSpace=wrap;html=1;" vertex="1" parent="WIyWlLk6GJQsqaUBKTNV-1">
          <mxGeometry x="338.75" y="430" width="121.25" height="40" as="geometry" />
        </mxCell>
        <mxCell id="h38hMKtq3HGebdx2gwiE-8" value="i = i + 1" style="rounded=0;whiteSpace=wrap;html=1;" vertex="1" parent="WIyWlLk6GJQsqaUBKTNV-1">
          <mxGeometry x="338.13" y="500" width="122.5" height="40" as="geometry" />
        </mxCell>
        <mxCell id="h38hMKtq3HGebdx2gwiE-31" value="" style="edgeStyle=orthogonalEdgeStyle;rounded=0;orthogonalLoop=1;jettySize=auto;html=1;" edge="1" parent="WIyWlLk6GJQsqaUBKTNV-1" source="h38hMKtq3HGebdx2gwiE-9" target="h38hMKtq3HGebdx2gwiE-10">
          <mxGeometry relative="1" as="geometry" />
        </mxCell>
        <mxCell id="h38hMKtq3HGebdx2gwiE-9" value="Create resultArray[coumter]&lt;div&gt;j = 0&lt;/div&gt;&lt;div&gt;i = 0&lt;/div&gt;" style="rounded=0;whiteSpace=wrap;html=1;" vertex="1" parent="WIyWlLk6GJQsqaUBKTNV-1">
          <mxGeometry x="320.01" y="560" width="160" height="60" as="geometry" />
        </mxCell>
        <mxCell id="h38hMKtq3HGebdx2gwiE-32" value="" style="edgeStyle=orthogonalEdgeStyle;rounded=0;orthogonalLoop=1;jettySize=auto;html=1;" edge="1" parent="WIyWlLk6GJQsqaUBKTNV-1" source="h38hMKtq3HGebdx2gwiE-10" target="h38hMKtq3HGebdx2gwiE-29">
          <mxGeometry relative="1" as="geometry" />
        </mxCell>
        <mxCell id="h38hMKtq3HGebdx2gwiE-10" value="i &amp;lt; array.length" style="rhombus;whiteSpace=wrap;html=1;" vertex="1" parent="WIyWlLk6GJQsqaUBKTNV-1">
          <mxGeometry x="325.01" y="650" width="150" height="80" as="geometry" />
        </mxCell>
        <mxCell id="h38hMKtq3HGebdx2gwiE-20" value="" style="endArrow=classic;html=1;rounded=0;" edge="1" parent="WIyWlLk6GJQsqaUBKTNV-1">
          <mxGeometry width="50" height="50" relative="1" as="geometry">
            <mxPoint x="280" y="280" as="sourcePoint" />
            <mxPoint x="341.41" y="280" as="targetPoint" />
          </mxGeometry>
        </mxCell>
        <mxCell id="h38hMKtq3HGebdx2gwiE-21" value="" style="endArrow=none;html=1;rounded=0;" edge="1" parent="WIyWlLk6GJQsqaUBKTNV-1">
          <mxGeometry width="50" height="50" relative="1" as="geometry">
            <mxPoint x="280" y="520" as="sourcePoint" />
            <mxPoint x="337.5" y="520" as="targetPoint" />
          </mxGeometry>
        </mxCell>
        <mxCell id="h38hMKtq3HGebdx2gwiE-22" value="" style="endArrow=none;html=1;rounded=0;" edge="1" parent="WIyWlLk6GJQsqaUBKTNV-1">
          <mxGeometry width="50" height="50" relative="1" as="geometry">
            <mxPoint x="280" y="520" as="sourcePoint" />
            <mxPoint x="280" y="280" as="targetPoint" />
          </mxGeometry>
        </mxCell>
        <mxCell id="h38hMKtq3HGebdx2gwiE-23" value="" style="endArrow=none;html=1;rounded=0;" edge="1" parent="WIyWlLk6GJQsqaUBKTNV-1">
          <mxGeometry width="50" height="50" relative="1" as="geometry">
            <mxPoint x="465" y="374.5" as="sourcePoint" />
            <mxPoint x="520" y="375" as="targetPoint" />
          </mxGeometry>
        </mxCell>
        <mxCell id="h38hMKtq3HGebdx2gwiE-24" value="" style="endArrow=none;html=1;rounded=0;" edge="1" parent="WIyWlLk6GJQsqaUBKTNV-1">
          <mxGeometry width="50" height="50" relative="1" as="geometry">
            <mxPoint x="520" y="520" as="sourcePoint" />
            <mxPoint x="520" y="370" as="targetPoint" />
          </mxGeometry>
        </mxCell>
        <mxCell id="h38hMKtq3HGebdx2gwiE-25" value="" style="endArrow=classic;html=1;rounded=0;entryX=1;entryY=0.5;entryDx=0;entryDy=0;" edge="1" parent="WIyWlLk6GJQsqaUBKTNV-1" target="h38hMKtq3HGebdx2gwiE-8">
          <mxGeometry width="50" height="50" relative="1" as="geometry">
            <mxPoint x="520" y="520" as="sourcePoint" />
            <mxPoint x="570" y="470" as="targetPoint" />
          </mxGeometry>
        </mxCell>
        <mxCell id="h38hMKtq3HGebdx2gwiE-26" value="" style="endArrow=none;html=1;rounded=0;" edge="1" parent="WIyWlLk6GJQsqaUBKTNV-1">
          <mxGeometry width="50" height="50" relative="1" as="geometry">
            <mxPoint x="460.63" y="280" as="sourcePoint" />
            <mxPoint x="560" y="280" as="targetPoint" />
          </mxGeometry>
        </mxCell>
        <mxCell id="h38hMKtq3HGebdx2gwiE-27" value="" style="endArrow=none;html=1;rounded=0;" edge="1" parent="WIyWlLk6GJQsqaUBKTNV-1">
          <mxGeometry width="50" height="50" relative="1" as="geometry">
            <mxPoint x="560" y="590" as="sourcePoint" />
            <mxPoint x="560" y="280" as="targetPoint" />
          </mxGeometry>
        </mxCell>
        <mxCell id="h38hMKtq3HGebdx2gwiE-28" value="" style="endArrow=classic;html=1;rounded=0;entryX=1;entryY=0.5;entryDx=0;entryDy=0;" edge="1" parent="WIyWlLk6GJQsqaUBKTNV-1" target="h38hMKtq3HGebdx2gwiE-9">
          <mxGeometry width="50" height="50" relative="1" as="geometry">
            <mxPoint x="560" y="590" as="sourcePoint" />
            <mxPoint x="610" y="530" as="targetPoint" />
          </mxGeometry>
        </mxCell>
        <mxCell id="h38hMKtq3HGebdx2gwiE-29" value="array[i].length &amp;lt;= 3" style="rhombus;whiteSpace=wrap;html=1;" vertex="1" parent="WIyWlLk6GJQsqaUBKTNV-1">
          <mxGeometry x="325.01" y="750" width="150" height="80" as="geometry" />
        </mxCell>
        <mxCell id="h38hMKtq3HGebdx2gwiE-30" value="resultarray[j] = array[i]&lt;div&gt;j = j + 1&lt;/div&gt;" style="rounded=0;whiteSpace=wrap;html=1;" vertex="1" parent="WIyWlLk6GJQsqaUBKTNV-1">
          <mxGeometry x="326.88" y="860" width="144.99" height="60" as="geometry" />
        </mxCell>
        <mxCell id="h38hMKtq3HGebdx2gwiE-34" value="" style="endArrow=classic;html=1;rounded=0;entryX=0.5;entryY=0;entryDx=0;entryDy=0;" edge="1" parent="WIyWlLk6GJQsqaUBKTNV-1" target="h38hMKtq3HGebdx2gwiE-30">
          <mxGeometry width="50" height="50" relative="1" as="geometry">
            <mxPoint x="400" y="830" as="sourcePoint" />
            <mxPoint x="450" y="780" as="targetPoint" />
          </mxGeometry>
        </mxCell>
        <mxCell id="h38hMKtq3HGebdx2gwiE-35" value="i = i = 1" style="rounded=0;whiteSpace=wrap;html=1;" vertex="1" parent="WIyWlLk6GJQsqaUBKTNV-1">
          <mxGeometry x="326.88" y="940" width="143.12" height="60" as="geometry" />
        </mxCell>
        <mxCell id="h38hMKtq3HGebdx2gwiE-36" value="" style="endArrow=none;html=1;rounded=0;" edge="1" parent="WIyWlLk6GJQsqaUBKTNV-1">
          <mxGeometry width="50" height="50" relative="1" as="geometry">
            <mxPoint x="475.01" y="790" as="sourcePoint" />
            <mxPoint x="520" y="790" as="targetPoint" />
          </mxGeometry>
        </mxCell>
        <mxCell id="h38hMKtq3HGebdx2gwiE-37" value="" style="endArrow=none;html=1;rounded=0;" edge="1" parent="WIyWlLk6GJQsqaUBKTNV-1">
          <mxGeometry width="50" height="50" relative="1" as="geometry">
            <mxPoint x="520" y="970" as="sourcePoint" />
            <mxPoint x="520" y="790" as="targetPoint" />
          </mxGeometry>
        </mxCell>
        <mxCell id="h38hMKtq3HGebdx2gwiE-38" value="" style="endArrow=classic;html=1;rounded=0;entryX=1;entryY=0.5;entryDx=0;entryDy=0;" edge="1" parent="WIyWlLk6GJQsqaUBKTNV-1" target="h38hMKtq3HGebdx2gwiE-35">
          <mxGeometry width="50" height="50" relative="1" as="geometry">
            <mxPoint x="520" y="970" as="sourcePoint" />
            <mxPoint x="570" y="920" as="targetPoint" />
          </mxGeometry>
        </mxCell>
        <mxCell id="h38hMKtq3HGebdx2gwiE-39" value="" style="endArrow=none;html=1;rounded=0;" edge="1" parent="WIyWlLk6GJQsqaUBKTNV-1">
          <mxGeometry width="50" height="50" relative="1" as="geometry">
            <mxPoint x="270" y="970" as="sourcePoint" />
            <mxPoint x="326.88" y="970" as="targetPoint" />
          </mxGeometry>
        </mxCell>
        <mxCell id="h38hMKtq3HGebdx2gwiE-40" value="" style="endArrow=none;html=1;rounded=0;" edge="1" parent="WIyWlLk6GJQsqaUBKTNV-1">
          <mxGeometry width="50" height="50" relative="1" as="geometry">
            <mxPoint x="270.01" y="970" as="sourcePoint" />
            <mxPoint x="270" y="690" as="targetPoint" />
          </mxGeometry>
        </mxCell>
        <mxCell id="h38hMKtq3HGebdx2gwiE-41" value="" style="endArrow=classic;html=1;rounded=0;entryX=0;entryY=0.5;entryDx=0;entryDy=0;" edge="1" parent="WIyWlLk6GJQsqaUBKTNV-1" target="h38hMKtq3HGebdx2gwiE-10">
          <mxGeometry width="50" height="50" relative="1" as="geometry">
            <mxPoint x="270.01" y="690" as="sourcePoint" />
            <mxPoint x="320.01" y="640" as="targetPoint" />
          </mxGeometry>
        </mxCell>
        <mxCell id="h38hMKtq3HGebdx2gwiE-42" value="resultArray" style="shape=parallelogram;perimeter=parallelogramPerimeter;whiteSpace=wrap;html=1;fixedSize=1;" vertex="1" parent="WIyWlLk6GJQsqaUBKTNV-1">
          <mxGeometry x="310" y="1020" width="160" height="60" as="geometry" />
        </mxCell>
        <mxCell id="h38hMKtq3HGebdx2gwiE-43" value="" style="endArrow=none;html=1;rounded=0;" edge="1" parent="WIyWlLk6GJQsqaUBKTNV-1">
          <mxGeometry width="50" height="50" relative="1" as="geometry">
            <mxPoint x="475.01" y="690" as="sourcePoint" />
            <mxPoint x="560" y="690" as="targetPoint" />
          </mxGeometry>
        </mxCell>
        <mxCell id="h38hMKtq3HGebdx2gwiE-44" value="" style="endArrow=none;html=1;rounded=0;" edge="1" parent="WIyWlLk6GJQsqaUBKTNV-1">
          <mxGeometry width="50" height="50" relative="1" as="geometry">
            <mxPoint x="560" y="1050" as="sourcePoint" />
            <mxPoint x="560" y="690" as="targetPoint" />
          </mxGeometry>
        </mxCell>
        <mxCell id="h38hMKtq3HGebdx2gwiE-45" value="" style="endArrow=classic;html=1;rounded=0;" edge="1" parent="WIyWlLk6GJQsqaUBKTNV-1" target="h38hMKtq3HGebdx2gwiE-42">
          <mxGeometry width="50" height="50" relative="1" as="geometry">
            <mxPoint x="560" y="1050" as="sourcePoint" />
            <mxPoint x="610" y="1000" as="targetPoint" />
          </mxGeometry>
        </mxCell>
        <mxCell id="h38hMKtq3HGebdx2gwiE-46" value="конец" style="ellipse;whiteSpace=wrap;html=1;" vertex="1" parent="WIyWlLk6GJQsqaUBKTNV-1">
          <mxGeometry x="305.01" y="1100" width="170" height="49" as="geometry" />
        </mxCell>
        <mxCell id="h38hMKtq3HGebdx2gwiE-48" value="" style="endArrow=classic;html=1;rounded=0;exitX=0.5;exitY=1;exitDx=0;exitDy=0;entryX=0.5;entryY=0;entryDx=0;entryDy=0;" edge="1" parent="WIyWlLk6GJQsqaUBKTNV-1" source="h38hMKtq3HGebdx2gwiE-42" target="h38hMKtq3HGebdx2gwiE-46">
          <mxGeometry width="50" height="50" relative="1" as="geometry">
            <mxPoint x="390" y="1120" as="sourcePoint" />
            <mxPoint x="440" y="1070" as="targetPoint" />
          </mxGeometry>
        </mxCell>
        <mxCell id="h38hMKtq3HGebdx2gwiE-49" value="No" style="text;html=1;align=center;verticalAlign=middle;whiteSpace=wrap;rounded=0;" vertex="1" parent="WIyWlLk6GJQsqaUBKTNV-1">
          <mxGeometry x="450" y="250" width="60" height="30" as="geometry" />
        </mxCell>
        <mxCell id="h38hMKtq3HGebdx2gwiE-50" value="Yes" style="text;html=1;align=center;verticalAlign=middle;whiteSpace=wrap;rounded=0;" vertex="1" parent="WIyWlLk6GJQsqaUBKTNV-1">
          <mxGeometry x="341.40999999999997" y="310" width="60" height="30" as="geometry" />
        </mxCell>
        <mxCell id="h38hMKtq3HGebdx2gwiE-51" value="No" style="text;html=1;align=center;verticalAlign=middle;whiteSpace=wrap;rounded=0;" vertex="1" parent="WIyWlLk6GJQsqaUBKTNV-1">
          <mxGeometry x="440" y="340" width="60" height="30" as="geometry" />
        </mxCell>
        <mxCell id="h38hMKtq3HGebdx2gwiE-52" value="Yes" style="text;html=1;align=center;verticalAlign=middle;whiteSpace=wrap;rounded=0;" vertex="1" parent="WIyWlLk6GJQsqaUBKTNV-1">
          <mxGeometry x="338.75" y="400" width="60" height="30" as="geometry" />
        </mxCell>
        <mxCell id="h38hMKtq3HGebdx2gwiE-53" value="No" style="text;html=1;align=center;verticalAlign=middle;whiteSpace=wrap;rounded=0;" vertex="1" parent="WIyWlLk6GJQsqaUBKTNV-1">
          <mxGeometry x="460.63" y="660" width="60" height="30" as="geometry" />
        </mxCell>
        <mxCell id="h38hMKtq3HGebdx2gwiE-54" value="Yes" style="text;html=1;align=center;verticalAlign=middle;whiteSpace=wrap;rounded=0;" vertex="1" parent="WIyWlLk6GJQsqaUBKTNV-1">
          <mxGeometry x="335" y="730" width="60" height="30" as="geometry" />
        </mxCell>
        <mxCell id="h38hMKtq3HGebdx2gwiE-55" value="No" style="text;html=1;align=center;verticalAlign=middle;whiteSpace=wrap;rounded=0;" vertex="1" parent="WIyWlLk6GJQsqaUBKTNV-1">
          <mxGeometry x="460.63" y="760" width="60" height="30" as="geometry" />
        </mxCell>
        <mxCell id="h38hMKtq3HGebdx2gwiE-56" value="Yes" style="text;html=1;align=center;verticalAlign=middle;whiteSpace=wrap;rounded=0;" vertex="1" parent="WIyWlLk6GJQsqaUBKTNV-1">
          <mxGeometry x="338.75" y="830" width="60" height="30" as="geometry" />
        </mxCell>
      </root>
    </mxGraphModel>
  </diagram>
</mxfile>
